# xmcd
#
# Track frame offsets:
#	150
#	17094
#	29602
#	46794
#	61718
#	74179
#	85385
#	110577
#	126843
#	138377
#	151398
#	166803
#	179745
#	195186
#	208255
#	235167
#
# Disc length: 3141 seconds
#
# Revision: 1
# Processed by: cddbd v1.5.2PL0 Copyright (c) Steve Scherf et al.
# Submitted via: audiograbber 1.83.01
#
DISCID=e30c4310
DTITLE=Various Artist - ASK48-1
DYEAR=1900
DGENRE=Karaoke
TTITLE0=Smith, Cal - Country Bumpkin
TTITLE1=Twitty, Conway - It's Only Make Believe
TTITLE2=Frissell, David and Shelly West - You're The Reason God Made Oklahoma
TTITLE3=Houston, David - Almost Persuaded
TTITLE4=Parton, Dolly - I Will Always Love You
TTITLE5=Twitty, Conway and Loretta Lynn - Louisiana Woman, Missippi Man
TTITLE6=Harris, Emmy Lou - Last Cheaters Waltz
TTITLE7=Harris, Emmy Lou - Save The Last Dance For Me
TTITLE8=Fender, Freddy - Befor The Next Teardrop Falls
TTITLE9=Fender, Freddy - Wasted Days and Wasted Nights
TTITLE10=Jones, George - The Grand Tour
TTITLE11=Williams, Hank Sr. - Honky Tonkin
TTITLE12=Reddy, Helen - Delta Dawn
TTITLE13=Reeves, Jim - One Has My Name, One Has My Heart
TTITLE14=Conlee, John - Rose Colored Glasses
TTITLE15=Data - Data Track
EXTD=
EXTT0=
EXTT1=
EXTT2=
EXTT3=
EXTT4=
EXTT5=
EXTT6=
EXTT7=
EXTT8=
EXTT9=
EXTT10=
EXTT11=
EXTT12=
EXTT13=
EXTT14=
EXTT15=
PLAYORDER=
